<?xml version="1.0" standalone="no"?>
<!DOCTYPE svg PUBLIC "-//W3C//DTD SVG 20010904//EN"
 "http://www.w3.org/TR/2001/REC-SVG-20010904/DTD/svg10.dtd">
<svg version="1.0" xmlns="http://www.w3.org/2000/svg"
 width="191.000000pt" height="191.000000pt" viewBox="0 0 191.000000 191.000000"
 preserveAspectRatio="xMidYMid meet">
<metadata>
Created by potrace 1.11, written by Peter Selinger 2001-2013
</metadata>
<g transform="translate(0.000000,191.000000) scale(0.100000,-0.100000)"
fill="#000000" stroke="none">
<path d="M930 1716 c-14 -8 -45 -24 -70 -36 -25 -12 -66 -44 -91 -70 -25 -26
-55 -53 -67 -59 -42 -22 -55 -68 -69 -231 -7 -85 -10 -175 -6 -200 6 -44 5
-45 -14 -27 -28 25 -32 21 -20 -18 7 -24 13 -31 19 -23 6 10 8 9 8 -3 0 -8 -5
-20 -12 -27 -15 -15 6 -111 31 -144 10 -13 21 -45 25 -71 4 -27 13 -65 20 -86
8 -20 17 -68 21 -107 l7 -71 -34 -21 c-26 -16 -44 -42 -73 -104 -54 -117 -67
-133 -120 -148 -25 -7 -62 -25 -81 -41 -43 -34 -81 -33 -145 3 -24 14 -61 29
-82 32 -35 7 -41 4 -75 -33 -23 -25 -50 -43 -69 -47 l-33 -6 0 -89 0 -89 480
0 c287 0 480 4 480 9 0 5 -19 44 -41 86 -27 50 -53 83 -73 95 -82 48 -103 63
-116 83 -16 26 -24 81 -11 72 21 -12 23 35 7 148 -7 42 4 42 37 0 11 -13 35
-30 55 -39 34 -14 43 -13 113 5 140 37 180 57 240 118 53 54 59 66 88 164 18
59 34 137 37 175 3 38 9 71 13 74 5 3 8 17 6 31 -2 16 6 37 21 54 30 35 37 86
31 226 -8 186 -17 227 -61 277 -11 12 -16 22 -11 22 4 0 -3 8 -16 18 -24 19
-86 47 -103 47 -5 0 -11 6 -14 14 -3 8 0 11 7 7 6 -4 11 -4 11 -1 0 11 -71 36
-94 33 -11 -1 -27 2 -35 6 -10 6 -12 5 -7 -2 9 -15 -4 -15 -41 -1 -15 5 -24 7
-20 3 10 -10 -31 -37 -44 -28 -8 4 -3 12 12 20 13 7 20 13 14 13 -5 0 -21 -6
-35 -13z m200 -21 c7 -8 11 -16 9 -16 -2 -1 -16 -3 -31 -5 -22 -2 -28 1 -28
17 0 23 32 26 50 4z m-3 -176 c114 -38 146 -92 146 -244 0 -33 6 -74 13 -92
16 -37 18 -63 6 -63 -5 0 -9 14 -10 31 0 17 -6 37 -13 45 -16 19 -77 36 -116
32 -32 -3 -33 -3 -19 -30 8 -16 11 -28 5 -28 -5 0 -9 5 -9 10 0 6 -8 10 -17 8
-13 -2 -18 3 -17 20 1 42 -73 18 -82 -27 -5 -22 -10 -28 -23 -23 -14 5 -14 4
1 -11 9 -10 15 -24 12 -32 -7 -18 39 -99 68 -120 16 -10 46 -15 100 -15 76 0
78 1 93 30 9 17 18 30 20 30 6 0 -3 -82 -13 -130 -6 -28 -13 -35 -32 -35 -19
0 -26 -7 -33 -35 -10 -41 -25 -62 -38 -54 -5 3 -9 -4 -9 -15 0 -23 -7 -26 -30
-11 -12 8 -12 10 2 15 9 4 14 13 11 21 -3 8 0 14 6 14 23 0 32 49 16 81 -15
29 -30 37 -37 20 -6 -17 -73 23 -70 42 3 20 -28 23 -60 6 -13 -7 -28 -8 -46
-1 -15 6 -42 13 -60 16 -32 5 -33 4 -30 -22 3 -25 1 -27 -33 -26 -29 1 -39 -4
-57 -30 -12 -18 -22 -37 -22 -42 0 -13 58 -34 62 -23 2 5 16 5 33 0 22 -6 34
-4 43 5 16 18 135 19 165 2 12 -7 32 -11 44 -9 28 3 43 -37 19 -51 -9 -5 -14
-13 -11 -19 4 -5 2 -9 -3 -9 -5 0 -21 -12 -35 -26 l-26 -25 -11 21 c-11 21
-12 21 -26 3 -13 -16 -13 -16 -5 9 8 21 7 28 -6 32 -21 8 -30 -1 -15 -16 15
-15 15 -28 0 -28 -7 0 -22 12 -33 26 -13 16 -32 26 -52 28 l-32 2 22 -21 c21
-20 43 -24 32 -4 -3 5 1 6 9 3 8 -3 12 -12 10 -19 -6 -16 -44 -27 -44 -13 0 5
-4 6 -10 3 -5 -3 -10 -2 -10 2 0 5 -13 17 -30 26 -16 10 -30 24 -30 32 0 10
-9 13 -30 10 -31 -4 -32 -2 -46 65 -7 39 -24 70 -38 70 -4 0 -3 -7 4 -15 10
-12 10 -15 -4 -15 -9 0 -16 6 -17 13 -3 33 4 73 15 79 6 4 44 8 85 8 l74 0 44
45 c40 42 43 49 43 100 0 90 -33 105 -200 96 -33 -2 -35 0 -37 31 -7 87 33
187 88 226 61 43 239 54 336 21z m-227 -319 c0 -14 -6 -20 -22 -19 -19 1 -19
2 -5 6 11 3 16 11 13 19 -3 8 -1 14 4 14 6 0 10 -9 10 -20z m195 -30 c3 -5 1
-10 -4 -10 -6 0 -11 5 -11 10 0 6 2 10 4 10 3 0 8 -4 11 -10z m-242 -110 c29
0 30 0 12 -20 -19 -20 -83 -27 -132 -14 -28 8 -30 24 -4 24 11 0 23 5 27 11 4
6 19 9 36 5 17 -3 44 -6 61 -6z m293 -11 c35 1 65 -3 69 -9 3 -6 10 -8 15 -5
5 3 11 1 15 -4 20 -34 -117 -43 -159 -10 -25 20 -37 47 -14 33 6 -4 39 -6 74
-5z m-166 -165 c0 -8 5 -12 10 -9 6 3 10 1 10 -4 0 -6 -9 -11 -19 -11 -14 0
-19 6 -18 20 2 23 17 27 17 4z m16 -183 c21 17 29 3 10 -16 -9 -9 -16 -20 -16
-25 0 -4 -6 -10 -14 -13 -11 -4 -14 2 -11 26 4 41 6 45 12 29 4 -10 8 -10 19
-1z m-56 -18 c0 -12 -8 -18 -25 -19 -21 -2 -23 1 -14 17 12 24 39 25 39 2z"/>
<path d="M950 1160 c0 -5 5 -10 11 -10 5 0 7 5 4 10 -3 6 -8 10 -11 10 -2 0
-4 -4 -4 -10z"/>
<path d="M1349 1040 l-24 -21 35 17 c43 21 47 24 28 24 -9 0 -26 -9 -39 -20z"/>
<path d="M1236 483 c3 -32 12 -79 20 -105 13 -44 13 -53 -6 -108 -11 -32 -20
-67 -20 -77 0 -10 -22 -44 -48 -75 -26 -31 -55 -70 -65 -87 l-18 -31 405 0
406 0 0 120 0 119 -52 16 c-64 19 -101 18 -153 -1 -22 -8 -58 -19 -81 -24 -22
-5 -48 -12 -57 -16 -11 -4 -20 2 -28 19 -11 25 -47 47 -74 47 -28 0 -67 45
-113 130 -49 91 -82 130 -107 130 -13 0 -14 -10 -9 -57z"/>
</g>
</svg>
