<?xml version="1.0" encoding="UTF-8" standalone="no"?>
<!DOCTYPE svg PUBLIC "-//W3C//DTD SVG 1.1//EN" "http://www.w3.org/Graphics/SVG/1.1/DTD/svg11.dtd">
<svg width="100%" height="100%" viewBox="0 0 992 439" version="1.1" xmlns="http://www.w3.org/2000/svg" xmlns:xlink="http://www.w3.org/1999/xlink" xml:space="preserve" xmlns:serif="http://www.serif.com/" style="fill-rule:evenodd;clip-rule:evenodd;stroke-linecap:round;stroke-linejoin:round;">
    <g id="Page-1" transform="matrix(0.643738,0,0,0.451646,0,0)">
        <g id="Path" transform="matrix(1.17829,0,0,1.34672,-89.9827,-44.2418)">
            <path d="M313.3,367.4C313.3,367.4 249.2,314.1 280.7,254C312.2,193.9 357.5,224.5 397.2,213.2C436.9,201.9 448.2,147.4 460.7,118C473.2,88.5 495.3,67.5 516.3,61.9C537.3,56.2 580.9,51.1 607.6,87.4C634.2,123.7 631.4,144.7 672.8,158.3C714.2,171.9 738.6,152.1 760.7,178.7C782.8,205.3 750.5,244.5 790.2,272.8C829.9,301.1 881.152,252.325 904.197,229.71C955.749,179.119 1008.38,155.635 1047.99,224.206C1093.78,303.477 1049.94,421.317 1054.28,456.589C1057.59,483.509 1099.67,497.37 1094.6,543.8C1082.7,578.7 1041.9,649.2 985.7,681.6C929.5,714 882,682.5 831.8,666.3C781.6,650.1 760.4,678.2 751,689.2C741.6,700.2 731.7,729.3 681.5,728.9C631.2,728.5 609.3,736.8 561.3,727.4C513.3,718 505.4,694.1 478.9,686.6C452.4,679 414.9,708.1 372.5,693C330,677.9 327,652.2 327.4,641.2C327.8,630.2 359.9,583 354.8,558.3C349.7,533.6 334.4,510.5 345.4,465.9C356.4,421.3 349.3,398.5 313.3,367.4Z" style="fill:rgb(240,241,246);fill-rule:nonzero;"/>
        </g>
        <g id="Path1" serif:id="Path" transform="matrix(0.634119,0,0,0.951976,556.899,72.9088)">
            <path d="M1487.3,773.3L1026.4,773.3L1019.7,7.9L1492.9,0.7L1487.3,773.3Z" style="fill:white;fill-rule:nonzero;"/>
        </g>
        <g id="Path2" serif:id="Path" transform="matrix(0.828959,0,0,0.883007,10.397,98.9695)">
            <path d="M139,820.3L133.3,820.3C79.3,820.3 35.5,776.5 35.5,722.5L35.5,666.1L236.8,666.1L236.8,722.5C236.8,776.5 193,820.3 139,820.3Z" style="fill:rgb(205,212,228);fill-rule:nonzero;"/>
        </g>
        <g id="Path3" serif:id="Path" transform="matrix(0.828959,0,0,0.883007,10.397,98.9695)">
            <path d="M130.2,303.9L130.2,666.1" style="fill:none;stroke:rgb(55,178,127);stroke-width:7px;"/>
        </g>
        <g id="Path4" serif:id="Path" transform="matrix(0.718133,0,0,0.883007,24.8265,98.9695)">
            <path d="M130.2,602.1C130.2,602.1 62,585.5 39.3,554.1C18.1,524.8 20,512.9 26.4,505C32.8,497.1 54.7,508.4 82.3,543.9C109.9,579.4 130.2,602.1 130.2,602.1Z" style="fill:rgb(55,178,127);fill-rule:nonzero;"/>
        </g>
        <g id="Path5" serif:id="Path" transform="matrix(0.828959,0,0,0.883007,10.397,98.9695)">
            <path d="M130.2,594.7C130.2,594.7 152.3,558.4 178.7,549.1C205.1,539.7 204.2,548.5 204.8,552.3C205.4,556.2 199.7,568.1 172.8,579.1C145.8,590.2 130.2,594.7 130.2,594.7Z" style="fill:rgb(55,178,127);fill-rule:nonzero;"/>
        </g>
        <g id="Path6" serif:id="Path" transform="matrix(0.828959,0,0,0.883007,10.397,98.9695)">
            <path d="M130.2,511.4C130.2,511.4 151.5,470.9 183.5,445.9C215.5,420.9 232.5,415 245,424.4C257.5,433.8 221.5,463.5 209,472C196.6,480.5 160,505.4 130.2,511.4Z" style="fill:rgb(55,178,127);fill-rule:nonzero;"/>
        </g>
        <g id="Path7" serif:id="Path" transform="matrix(0.828959,0,0,0.883007,10.397,98.9695)">
            <path d="M130.2,500.9C130.2,500.9 86.3,471.7 66.7,449.9C47.1,428.1 27.9,390.9 40.6,379.6C53.4,368.3 82.3,410.5 89.4,421.6C96.5,432.6 119.2,466.3 130.2,500.9Z" style="fill:rgb(55,178,127);fill-rule:nonzero;"/>
        </g>
        <g id="Path8" serif:id="Path" transform="matrix(0.828959,0,0,0.883007,10.397,98.9695)">
            <path d="M130.2,417.4C130.2,417.4 151,366.9 171,347.5C191,328 228.6,293.2 232.4,312.9C237.1,337.1 201.9,363.5 185.2,377.6C168.5,391.7 130.2,417.4 130.2,417.4Z" style="fill:rgb(55,178,127);fill-rule:nonzero;"/>
        </g>
        <g id="Path9" serif:id="Path" transform="matrix(0.828959,0,0,0.883007,10.397,98.9695)">
            <path d="M130.2,380.8C130.2,380.8 89.9,356.8 76.9,338.7C63.9,320.6 51.8,297.9 58.4,290.1C65,282.3 87,305.4 101.5,327.7C120.6,357 130.2,380.8 130.2,380.8Z" style="fill:rgb(55,178,127);fill-rule:nonzero;"/>
        </g>
        <g id="Path10" serif:id="Path" transform="matrix(0.828959,0,0,0.883007,10.397,98.9695)">
            <path d="M132.4,316.9C132.4,316.9 100.4,258.2 101.8,219.7C103.2,181.1 113.1,177.2 118.2,176.6C123.3,176 139.5,197.6 138.9,236.4C138.3,275.2 132.4,316.9 132.4,316.9Z" style="fill:rgb(55,178,127);fill-rule:nonzero;"/>
        </g>
        <g id="Rectangle" transform="matrix(0.634119,0,0,0.951976,556.899,72.9088)">
            <rect x="1045.8" y="31.4" width="29.5" height="121.1" style="fill:rgb(240,241,246);"/>
        </g>
        <g id="Rectangle1" serif:id="Rectangle" transform="matrix(0.634119,0,0,0.951976,556.899,72.9088)">
            <rect x="1104.8" y="25.9" width="29.5" height="126.6" style="fill:rgb(240,241,246);"/>
        </g>
        <g id="Rectangle2" serif:id="Rectangle" transform="matrix(0.524338,-0.535376,0.356618,0.787166,652.055,719.041)">
            <rect x="1161.94" y="41.88" width="31.001" height="107.503" style="fill:rgb(205,212,228);"/>
        </g>
        <g id="Rectangle3" serif:id="Rectangle" transform="matrix(0.634119,0,0,0.951976,556.899,72.9088)">
            <rect x="1075.3" y="45.1" width="29.5" height="107.3" style="fill:rgb(205,212,228);"/>
        </g>
        <g id="Rectangle4" serif:id="Rectangle" transform="matrix(0.634119,0,0,0.951976,556.899,72.9088)">
            <rect x="1218.9" y="31.4" width="31" height="121.1" style="fill:rgb(240,241,246);"/>
        </g>
        <g id="Rectangle5" serif:id="Rectangle" transform="matrix(0.634119,0,0,0.951976,556.899,72.9088)">
            <rect x="1279.4" y="33.1" width="33.8" height="119.4" style="fill:rgb(240,241,246);"/>
        </g>
        <g id="Rectangle6" serif:id="Rectangle" transform="matrix(0.634119,0,0,0.951976,556.899,72.9088)">
            <rect x="1313.2" y="64.2" width="29.1" height="88.3" style="fill:rgb(205,212,228);"/>
        </g>
        <g id="Rectangle7" serif:id="Rectangle" transform="matrix(0.634119,0,0,0.951976,556.899,72.9088)">
            <rect x="1342.3" y="25.5" width="32.5" height="127" style="fill:rgb(240,241,246);"/>
        </g>
        <g id="Rectangle8" serif:id="Rectangle" transform="matrix(0.634119,0,0,0.951976,556.899,72.9088)">
            <rect x="1374.8" y="49.3" width="32.5" height="103.2" style="fill:rgb(205,212,228);"/>
        </g>
        <g id="Rectangle9" serif:id="Rectangle" transform="matrix(0.634119,0,0,0.951976,556.899,72.9088)">
            <rect x="1438.5" y="65.6" width="30" height="86.9" style="fill:rgb(205,212,228);"/>
        </g>
        <g id="Rectangle10" serif:id="Rectangle" transform="matrix(0.634119,0,0,0.951976,556.899,72.9088)">
            <rect x="1407.2" y="30.8" width="31.3" height="121.7" style="fill:rgb(240,241,246);"/>
        </g>
        <g id="Rectangle11" serif:id="Rectangle" transform="matrix(0.634119,0,0,0.951976,556.899,72.9088)">
            <rect x="1249.9" y="47.7" width="29.5" height="104.7" style="fill:rgb(205,212,228);"/>
        </g>
        <g id="Rectangle12" serif:id="Rectangle" transform="matrix(0.634119,0,0,0.951976,556.899,72.9088)">
            <rect x="1038.3" y="188.6" width="31" height="122.1" style="fill:rgb(205,212,228);"/>
        </g>
        <g id="Rectangle13" serif:id="Rectangle" transform="matrix(0.634119,0,0,0.951976,556.899,72.9088)">
            <rect x="1069.3" y="216.7" width="31" height="93.9" style="fill:rgb(240,241,246);"/>
        </g>
        <g id="Rectangle14" serif:id="Rectangle" transform="matrix(0.634119,0,0,0.951976,556.899,72.9088)">
            <rect x="1100.2" y="202.4" width="28.7" height="108.3" style="fill:rgb(205,212,228);"/>
        </g>
        <g id="Rectangle15" serif:id="Rectangle" transform="matrix(0.634119,0,0,0.951976,556.899,72.9088)">
            <rect x="1129" y="185.2" width="30" height="125.5" style="fill:rgb(240,241,246);"/>
        </g>
        <g id="Rectangle16" serif:id="Rectangle" transform="matrix(0.634119,0,0,0.951976,556.899,72.9088)">
            <rect x="1159" y="202.4" width="30" height="108.3" style="fill:rgb(205,212,228);"/>
        </g>
        <g id="Rectangle17" serif:id="Rectangle" transform="matrix(0.634119,0,0,0.951976,556.899,72.9088)">
            <rect x="1189.1" y="190.1" width="31.4" height="120.6" style="fill:rgb(240,241,246);"/>
        </g>
        <g id="Rectangle18" serif:id="Rectangle" transform="matrix(0.618454,0.210291,-0.140076,0.928459,611.366,-185.311)">
            <rect x="1240" y="192.015" width="31.4" height="112.8" style="fill:rgb(205,212,228);"/>
        </g>
        <g id="Rectangle19" serif:id="Rectangle" transform="matrix(0.634119,0,0,0.951976,556.899,72.9088)">
            <rect x="1411.6" y="190.1" width="28" height="120.6" style="fill:rgb(240,241,246);"/>
        </g>
        <g id="Rectangle20" serif:id="Rectangle" transform="matrix(0.634119,0,0,0.951976,556.899,72.9088)">
            <rect x="1438.5" y="212.6" width="30" height="98.1" style="fill:rgb(205,212,228);"/>
        </g>
        <g id="Rectangle21" serif:id="Rectangle" transform="matrix(0.634119,0,0,0.951976,556.899,72.9088)">
            <rect x="1274" y="244.6" width="104" height="26.6" style="fill:rgb(240,241,246);"/>
        </g>
        <g id="Rectangle22" serif:id="Rectangle" transform="matrix(0.634119,0,0,0.951976,556.899,72.9088)">
            <rect x="1283.1" y="271.3" width="119.1" height="39.4" style="fill:rgb(205,212,228);"/>
        </g>
        <g id="Rectangle23" serif:id="Rectangle" transform="matrix(0.634119,0,0,0.951976,556.899,72.9088)">
            <rect x="1041.3" y="440.3" width="135.7" height="28.5" style="fill:rgb(205,212,228);"/>
        </g>
        <g id="Rectangle24" serif:id="Rectangle" transform="matrix(0.634119,0,0,0.951976,556.899,72.9088)">
            <rect x="1054.5" y="414.4" width="135.7" height="25.9" style="fill:rgb(240,241,246);"/>
        </g>
        <g id="Rectangle25" serif:id="Rectangle" transform="matrix(0.634119,0,0,0.951976,556.899,72.9088)">
            <rect x="1038.8" y="385.9" width="128.9" height="28.5" style="fill:rgb(205,212,228);"/>
        </g>
        <g id="Rectangle26" serif:id="Rectangle" transform="matrix(0.634119,0,0,0.951976,556.899,72.9088)">
            <rect x="1060.4" y="357.3" width="103.9" height="28.5" style="fill:rgb(240,241,246);"/>
        </g>
        <g id="Rectangle27" serif:id="Rectangle" transform="matrix(0.634119,0,0,0.951976,556.899,72.9088)">
            <rect x="1214.2" y="346.1" width="28.3" height="122.7" style="fill:rgb(205,212,228);"/>
        </g>
        <g id="Rectangle28" serif:id="Rectangle" transform="matrix(0.634119,0,0,0.951976,556.899,72.9088)">
            <rect x="1277.9" y="358.5" width="33.4" height="110.4" style="fill:rgb(205,212,228);"/>
        </g>
        <g id="Rectangle29" serif:id="Rectangle" transform="matrix(0.634119,0,0,0.951976,556.899,72.9088)">
            <rect x="1345" y="375.3" width="30.4" height="93.5" style="fill:rgb(205,212,228);"/>
        </g>
        <g id="Rectangle30" serif:id="Rectangle" transform="matrix(0.634119,0,0,0.951976,556.899,72.9088)">
            <rect x="1242.4" y="328.2" width="35.4" height="140.6" style="fill:rgb(240,241,246);"/>
        </g>
        <g id="Rectangle31" serif:id="Rectangle" transform="matrix(0.634119,0,0,0.951976,556.899,72.9088)">
            <rect x="1311.3" y="338.3" width="33.6" height="130.6" style="fill:rgb(240,241,246);"/>
        </g>
        <g id="Rectangle32" serif:id="Rectangle" transform="matrix(0.483396,0.616128,-0.410408,0.725702,939.465,-717.144)">
            <rect x="1413.9" y="344.474" width="35.299" height="123.898" style="fill:rgb(240,241,246);"/>
        </g>
        <g id="Rectangle33" serif:id="Rectangle" transform="matrix(0.543708,0.4899,-0.326326,0.816245,839.469,-374.256)">
            <rect x="1057.6" y="513.724" width="25.799" height="111.197" style="fill:rgb(205,212,228);"/>
        </g>
        <g id="Rectangle34" serif:id="Rectangle" transform="matrix(0.634119,0,0,0.951976,556.899,72.9088)">
            <rect x="1111.3" y="499.2" width="35.4" height="127.8" style="fill:rgb(240,241,246);"/>
        </g>
        <g id="Rectangle35" serif:id="Rectangle" transform="matrix(0.634119,0,0,0.951976,556.899,72.9088)">
            <rect x="1174.7" y="499.2" width="30.4" height="127.8" style="fill:rgb(240,241,246);"/>
        </g>
        <g id="Rectangle36" serif:id="Rectangle" transform="matrix(0.634119,0,0,0.951976,556.899,72.9088)">
            <rect x="1236.1" y="490.6" width="31.9" height="136.4" style="fill:rgb(240,241,246);"/>
        </g>
        <g id="Rectangle37" serif:id="Rectangle" transform="matrix(0.634119,0,0,0.951976,556.899,72.9088)">
            <rect x="1146.7" y="515.3" width="28" height="111.7" style="fill:rgb(205,212,228);"/>
        </g>
        <g id="Rectangle38" serif:id="Rectangle" transform="matrix(0.634119,0,0,0.951976,556.899,72.9088)">
            <rect x="1205.1" y="522.1" width="31" height="104.9" style="fill:rgb(205,212,228);"/>
        </g>
        <g id="Rectangle39" serif:id="Rectangle" transform="matrix(0.634119,0,0,0.951976,556.899,72.9088)">
            <rect x="1290.9" y="598.5" width="138.3" height="28.5" style="fill:rgb(205,212,228);"/>
        </g>
        <g id="Rectangle40" serif:id="Rectangle" transform="matrix(0.634119,0,0,0.951976,556.899,72.9088)">
            <rect x="1278.6" y="580.1" width="136.4" height="18.3" style="fill:rgb(240,241,246);"/>
        </g>
        <g id="Rectangle41" serif:id="Rectangle" transform="matrix(0.634119,0,0,0.951976,556.899,72.9088)">
            <rect x="1284.9" y="552" width="113.4" height="28.2" style="fill:rgb(205,212,228);"/>
        </g>
        <g id="Rectangle42" serif:id="Rectangle" transform="matrix(0.634119,0,0,0.951976,556.899,72.9088)">
            <rect x="1437.4" y="526.7" width="20" height="100.3" style="fill:rgb(205,212,228);"/>
        </g>
        <g id="Rectangle43" serif:id="Rectangle" transform="matrix(0.634119,0,0,0.951976,556.899,72.9088)">
            <rect x="1457.5" y="501.3" width="20" height="125.7" style="fill:rgb(240,241,246);"/>
        </g>
        <g id="Rectangle44" serif:id="Rectangle" transform="matrix(0.634119,0,0,0.951976,556.899,72.9088)">
            <rect x="1454.7" y="648.1" width="22.8" height="125.7" style="fill:rgb(205,212,228);"/>
        </g>
        <g id="Rectangle45" serif:id="Rectangle" transform="matrix(0.634119,0,0,0.951976,556.899,72.9088)">
            <rect x="1039.8" y="636.5" width="29.5" height="136.8" style="fill:rgb(240,241,246);"/>
        </g>
        <g id="Rectangle46" serif:id="Rectangle" transform="matrix(0.634119,0,0,0.951976,556.899,72.9088)">
            <rect x="1069.3" y="647.8" width="27.6" height="125.5" style="fill:rgb(205,212,228);"/>
        </g>
        <g id="Rectangle47" serif:id="Rectangle" transform="matrix(0.634119,0,0,0.951976,556.899,72.9088)">
            <rect x="1121" y="660.1" width="27.6" height="113.2" style="fill:rgb(205,212,228);"/>
        </g>
        <g id="Rectangle48" serif:id="Rectangle" transform="matrix(0.634119,0,0,0.951976,556.899,72.9088)">
            <rect x="1148.6" y="674.1" width="26.1" height="99.2" style="fill:rgb(240,241,246);"/>
        </g>
        <g id="Rectangle49" serif:id="Rectangle" transform="matrix(0.465001,-0.647251,0.431139,0.698086,457.498,1065.62)">
            <rect x="1237.79" y="667.606" width="26.1" height="107.2" style="fill:rgb(240,241,246);"/>
        </g>
        <g id="Rectangle50" serif:id="Rectangle" transform="matrix(0.634119,0,0,0.951976,556.899,72.9088)">
            <rect x="1174.7" y="648.6" width="27.8" height="124.7" style="fill:rgb(205,212,228);"/>
        </g>
        <g id="Rectangle51" serif:id="Rectangle" transform="matrix(0.534783,0.511561,-0.340755,0.802847,941.768,-543.701)">
            <rect x="1401.11" y="664.333" width="26.602" height="105.606" style="fill:rgb(240,241,246);"/>
        </g>
        <g id="Rectangle52" serif:id="Rectangle" transform="matrix(0.634119,0,0,0.951976,556.899,72.9088)">
            <rect x="1096.8" y="634.8" width="24.2" height="138.5" style="fill:rgb(240,241,246);"/>
        </g>
        <g id="Rectangle53" serif:id="Rectangle" transform="matrix(0.634119,0,0,0.951976,556.899,72.9088)">
            <rect x="1297.4" y="660.5" width="25.1" height="112.8" style="fill:rgb(205,212,228);"/>
        </g>
        <g id="Rectangle54" serif:id="Rectangle" transform="matrix(0.634119,0,0,0.951976,556.899,72.9088)">
            <rect x="1322.5" y="642.3" width="27" height="131" style="fill:rgb(240,241,246);"/>
        </g>
        <g id="Rectangle55" serif:id="Rectangle" transform="matrix(0.634119,0,0,0.951976,556.899,72.9088)">
            <rect x="1349.5" y="671.4" width="24.2" height="101.9" style="fill:rgb(205,212,228);"/>
        </g>
        <g id="Path11" serif:id="Path" transform="matrix(0.634119,0,0,0.951976,556.899,72.9088)">
            <path d="M1487.3,773.3L1026.4,773.3L1019.7,7.9L1492.9,0.7L1487.3,773.3Z" style="fill:none;stroke:rgb(253,171,0);stroke-width:7px;"/>
        </g>
        <g id="Path12" serif:id="Path" transform="matrix(0.634119,0,0,0.951976,556.899,72.9088)">
            <path d="M1021,152.5L1491.8,152.5" style="fill:none;stroke:rgb(253,171,0);stroke-width:7px;"/>
        </g>
        <g id="Path13" serif:id="Path" transform="matrix(0.634119,0,0,0.951976,556.899,72.9088)">
            <path d="M1022.4,310.7L1490.7,310.7" style="fill:none;stroke:rgb(253,171,0);stroke-width:7px;"/>
        </g>
        <g id="Path14" serif:id="Path" transform="matrix(0.634119,0,0,0.951976,556.899,72.9088)">
            <path d="M1023.7,468.8L1489.5,468.8" style="fill:none;stroke:rgb(253,171,0);stroke-width:7px;"/>
        </g>
        <g id="Path15" serif:id="Path" transform="matrix(0.634119,0,0,0.951976,556.899,72.9088)">
            <path d="M1025.1,627L1488.3,627" style="fill:none;stroke:rgb(253,171,0);stroke-width:7px;"/>
        </g>
    </g>
</svg>
